<svg xmlns="http://www.w3.org/2000/svg" xmlns:xlink="http://www.w3.org/1999/xlink" width="1600" zoomAndPan="magnify" viewBox="0 0 1200 675.000002" height="900" preserveAspectRatio="xMidYMid meet" version="1.0"><defs><clipPath id="6b67e90e6a"><path d="M 0.886719 0 L 1199.113281 0 L 1199.113281 674 L 0.886719 674 Z M 0.886719 0 " clip-rule="nonzero"/></clipPath><radialGradient gradientTransform="matrix(1, 0, 0, 1, 0.887572, 0.0000199704)" gradientUnits="userSpaceOnUse" r="687.390139" cx="599.112428" id="3600f0a7bc" cy="337.000741" fx="599.112428" fy="337.000741"><stop stop-opacity="1" stop-color="rgb(10.240173%, 8.244324%, 48.324585%)" offset="0"/><stop stop-opacity="1" stop-color="rgb(10.343933%, 8.360291%, 48.638916%)" offset="0.0078125"/><stop stop-opacity="1" stop-color="rgb(10.467529%, 8.49762%, 49.015808%)" offset="0.0195312"/><stop stop-opacity="1" stop-color="rgb(10.592651%, 8.636475%, 49.394226%)" offset="0.03125"/><stop stop-opacity="1" stop-color="rgb(10.716248%, 8.77533%, 49.771118%)" offset="0.0429688"/><stop stop-opacity="1" stop-color="rgb(10.839844%, 8.912659%, 50.14801%)" offset="0.0546875"/><stop stop-opacity="1" stop-color="rgb(10.964966%, 9.051514%, 50.524902%)" offset="0.0664062"/><stop stop-opacity="1" stop-color="rgb(11.088562%, 9.190369%, 50.90332%)" offset="0.078125"/><stop stop-opacity="1" stop-color="rgb(11.213684%, 9.327698%, 51.280212%)" offset="0.0898438"/><stop stop-opacity="1" stop-color="rgb(11.33728%, 9.466553%, 51.657104%)" offset="0.101562"/><stop stop-opacity="1" stop-color="rgb(11.462402%, 9.603882%, 52.035522%)" offset="0.113281"/><stop stop-opacity="1" stop-color="rgb(11.585999%, 9.742737%, 52.412415%)" offset="0.125"/><stop stop-opacity="1" stop-color="rgb(11.709595%, 9.881592%, 52.789307%)" offset="0.136719"/><stop stop-opacity="1" stop-color="rgb(11.834717%, 10.018921%, 53.167725%)" offset="0.148438"/><stop stop-opacity="1" stop-color="rgb(11.958313%, 10.157776%, 53.544617%)" offset="0.160156"/><stop stop-opacity="1" stop-color="rgb(12.083435%, 10.296631%, 53.921509%)" offset="0.171875"/><stop stop-opacity="1" stop-color="rgb(12.207031%, 10.43396%, 54.298401%)" offset="0.183594"/><stop stop-opacity="1" stop-color="rgb(12.330627%, 10.572815%, 54.676819%)" offset="0.195312"/><stop stop-opacity="1" stop-color="rgb(12.45575%, 10.710144%, 55.053711%)" offset="0.207031"/><stop stop-opacity="1" stop-color="rgb(12.579346%, 10.848999%, 55.430603%)" offset="0.21875"/><stop stop-opacity="1" stop-color="rgb(12.704468%, 10.987854%, 55.809021%)" offset="0.230469"/><stop stop-opacity="1" stop-color="rgb(12.828064%, 11.125183%, 56.185913%)" offset="0.242188"/><stop stop-opacity="1" stop-color="rgb(12.931824%, 11.24115%, 56.500244%)" offset="0.253906"/><stop stop-opacity="1" stop-color="rgb(13.014221%, 11.332703%, 56.752014%)" offset="0.261719"/><stop stop-opacity="1" stop-color="rgb(13.098145%, 11.425781%, 57.003784%)" offset="0.269531"/><stop stop-opacity="1" stop-color="rgb(13.180542%, 11.517334%, 57.255554%)" offset="0.277344"/><stop stop-opacity="1" stop-color="rgb(13.262939%, 11.610413%, 57.505798%)" offset="0.285156"/><stop stop-opacity="1" stop-color="rgb(13.345337%, 11.701965%, 57.757568%)" offset="0.292969"/><stop stop-opacity="1" stop-color="rgb(13.42926%, 11.793518%, 58.009338%)" offset="0.300781"/><stop stop-opacity="1" stop-color="rgb(13.511658%, 11.886597%, 58.261108%)" offset="0.308594"/><stop stop-opacity="1" stop-color="rgb(13.594055%, 11.978149%, 58.512878%)" offset="0.316406"/><stop stop-opacity="1" stop-color="rgb(13.676453%, 12.071228%, 58.764648%)" offset="0.324219"/><stop stop-opacity="1" stop-color="rgb(13.760376%, 12.162781%, 59.016418%)" offset="0.332031"/><stop stop-opacity="1" stop-color="rgb(13.842773%, 12.255859%, 59.266663%)" offset="0.339844"/><stop stop-opacity="1" stop-color="rgb(13.925171%, 12.347412%, 59.518433%)" offset="0.347656"/><stop stop-opacity="1" stop-color="rgb(14.009094%, 12.438965%, 59.770203%)" offset="0.355469"/><stop stop-opacity="1" stop-color="rgb(14.091492%, 12.532043%, 60.021973%)" offset="0.363281"/><stop stop-opacity="1" stop-color="rgb(14.173889%, 12.623596%, 60.273743%)" offset="0.371094"/><stop stop-opacity="1" stop-color="rgb(14.256287%, 12.716675%, 60.525513%)" offset="0.378906"/><stop stop-opacity="1" stop-color="rgb(14.34021%, 12.808228%, 60.777283%)" offset="0.386719"/><stop stop-opacity="1" stop-color="rgb(14.422607%, 12.89978%, 61.027527%)" offset="0.394531"/><stop stop-opacity="1" stop-color="rgb(14.505005%, 12.992859%, 61.279297%)" offset="0.402344"/><stop stop-opacity="1" stop-color="rgb(14.587402%, 13.084412%, 61.531067%)" offset="0.410156"/><stop stop-opacity="1" stop-color="rgb(14.671326%, 13.17749%, 61.782837%)" offset="0.417969"/><stop stop-opacity="1" stop-color="rgb(14.753723%, 13.269043%, 62.034607%)" offset="0.425781"/><stop stop-opacity="1" stop-color="rgb(14.836121%, 13.362122%, 62.286377%)" offset="0.433594"/><stop stop-opacity="1" stop-color="rgb(14.920044%, 13.453674%, 62.538147%)" offset="0.441406"/><stop stop-opacity="1" stop-color="rgb(15.002441%, 13.545227%, 62.789917%)" offset="0.449219"/><stop stop-opacity="1" stop-color="rgb(15.084839%, 13.638306%, 63.040161%)" offset="0.457031"/><stop stop-opacity="1" stop-color="rgb(15.167236%, 13.729858%, 63.291931%)" offset="0.464844"/><stop stop-opacity="1" stop-color="rgb(15.25116%, 13.822937%, 63.543701%)" offset="0.472656"/><stop stop-opacity="1" stop-color="rgb(15.333557%, 13.91449%, 63.795471%)" offset="0.480469"/><stop stop-opacity="1" stop-color="rgb(15.415955%, 14.006042%, 64.047241%)" offset="0.488281"/><stop stop-opacity="1" stop-color="rgb(15.498352%, 14.099121%, 64.299011%)" offset="0.496094"/><stop stop-opacity="1" stop-color="rgb(15.602112%, 14.213562%, 64.613342%)" offset="0.503906"/><stop stop-opacity="1" stop-color="rgb(15.727234%, 14.352417%, 64.990234%)" offset="0.515625"/><stop stop-opacity="1" stop-color="rgb(15.85083%, 14.491272%, 65.367126%)" offset="0.527344"/><stop stop-opacity="1" stop-color="rgb(15.974426%, 14.628601%, 65.745544%)" offset="0.539062"/><stop stop-opacity="1" stop-color="rgb(16.099548%, 14.767456%, 66.122437%)" offset="0.550781"/><stop stop-opacity="1" stop-color="rgb(16.223145%, 14.904785%, 66.499329%)" offset="0.5625"/><stop stop-opacity="1" stop-color="rgb(16.348267%, 15.04364%, 66.877747%)" offset="0.574219"/><stop stop-opacity="1" stop-color="rgb(16.471863%, 15.182495%, 67.254639%)" offset="0.585938"/><stop stop-opacity="1" stop-color="rgb(16.595459%, 15.319824%, 67.631531%)" offset="0.597656"/><stop stop-opacity="1" stop-color="rgb(16.720581%, 15.458679%, 68.009949%)" offset="0.609375"/><stop stop-opacity="1" stop-color="rgb(16.844177%, 15.597534%, 68.386841%)" offset="0.621094"/><stop stop-opacity="1" stop-color="rgb(16.947937%, 15.711975%, 68.701172%)" offset="0.632812"/><stop stop-opacity="1" stop-color="rgb(17.030334%, 15.805054%, 68.952942%)" offset="0.640625"/><stop stop-opacity="1" stop-color="rgb(17.114258%, 15.896606%, 69.204712%)" offset="0.648438"/><stop stop-opacity="1" stop-color="rgb(17.196655%, 15.988159%, 69.454956%)" offset="0.65625"/><stop stop-opacity="1" stop-color="rgb(17.279053%, 16.081238%, 69.706726%)" offset="0.664062"/><stop stop-opacity="1" stop-color="rgb(17.362976%, 16.172791%, 69.958496%)" offset="0.671875"/><stop stop-opacity="1" stop-color="rgb(17.445374%, 16.265869%, 70.210266%)" offset="0.679688"/><stop stop-opacity="1" stop-color="rgb(17.527771%, 16.357422%, 70.462036%)" offset="0.6875"/><stop stop-opacity="1" stop-color="rgb(17.610168%, 16.448975%, 70.713806%)" offset="0.695312"/><stop stop-opacity="1" stop-color="rgb(17.694092%, 16.542053%, 70.965576%)" offset="0.703125"/><stop stop-opacity="1" stop-color="rgb(17.776489%, 16.633606%, 71.21582%)" offset="0.710938"/><stop stop-opacity="1" stop-color="rgb(17.858887%, 16.726685%, 71.46759%)" offset="0.71875"/><stop stop-opacity="1" stop-color="rgb(17.941284%, 16.818237%, 71.71936%)" offset="0.726562"/><stop stop-opacity="1" stop-color="rgb(18.025208%, 16.911316%, 71.97113%)" offset="0.734375"/><stop stop-opacity="1" stop-color="rgb(18.107605%, 17.002869%, 72.2229%)" offset="0.742188"/><stop stop-opacity="1" stop-color="rgb(18.190002%, 17.094421%, 72.47467%)" offset="0.75"/><stop stop-opacity="1" stop-color="rgb(18.293762%, 17.210388%, 72.789001%)" offset="0.757812"/><stop stop-opacity="1" stop-color="rgb(18.417358%, 17.347717%, 73.165894%)" offset="0.769531"/><stop stop-opacity="1" stop-color="rgb(18.54248%, 17.486572%, 73.544312%)" offset="0.78125"/><stop stop-opacity="1" stop-color="rgb(18.666077%, 17.625427%, 73.921204%)" offset="0.792969"/><stop stop-opacity="1" stop-color="rgb(18.791199%, 17.762756%, 74.298096%)" offset="0.804688"/><stop stop-opacity="1" stop-color="rgb(18.894958%, 17.878723%, 74.612427%)" offset="0.816406"/><stop stop-opacity="1" stop-color="rgb(18.977356%, 17.970276%, 74.864197%)" offset="0.824219"/><stop stop-opacity="1" stop-color="rgb(19.059753%, 18.063354%, 75.115967%)" offset="0.832031"/><stop stop-opacity="1" stop-color="rgb(19.142151%, 18.154907%, 75.367737%)" offset="0.839844"/><stop stop-opacity="1" stop-color="rgb(19.226074%, 18.247986%, 75.619507%)" offset="0.847656"/><stop stop-opacity="1" stop-color="rgb(19.308472%, 18.339539%, 75.869751%)" offset="0.855469"/><stop stop-opacity="1" stop-color="rgb(19.390869%, 18.431091%, 76.121521%)" offset="0.863281"/><stop stop-opacity="1" stop-color="rgb(19.474792%, 18.52417%, 76.373291%)" offset="0.871094"/><stop stop-opacity="1" stop-color="rgb(19.577026%, 18.638611%, 76.687622%)" offset="0.878906"/><stop stop-opacity="1" stop-color="rgb(19.702148%, 18.777466%, 77.06604%)" offset="0.890625"/><stop stop-opacity="1" stop-color="rgb(19.825745%, 18.916321%, 77.442932%)" offset="0.902344"/><stop stop-opacity="1" stop-color="rgb(19.929504%, 19.030762%, 77.757263%)" offset="0.914062"/><stop stop-opacity="1" stop-color="rgb(20.011902%, 19.12384%, 78.009033%)" offset="0.921875"/><stop stop-opacity="1" stop-color="rgb(20.095825%, 19.215393%, 78.260803%)" offset="0.929688"/><stop stop-opacity="1" stop-color="rgb(20.178223%, 19.306946%, 78.512573%)" offset="0.9375"/><stop stop-opacity="1" stop-color="rgb(20.280457%, 19.422913%, 78.826904%)" offset="0.945312"/><stop stop-opacity="1" stop-color="rgb(20.384216%, 19.537354%, 79.141235%)" offset="0.957031"/><stop stop-opacity="1" stop-color="rgb(20.46814%, 19.630432%, 79.393005%)" offset="0.964844"/><stop stop-opacity="1" stop-color="rgb(20.570374%, 19.744873%, 79.707336%)" offset="0.972656"/><stop stop-opacity="1" stop-color="rgb(20.674133%, 19.86084%, 80.021667%)" offset="0.984375"/><stop stop-opacity="1" stop-color="rgb(20.758057%, 19.952393%, 80.273438%)" offset="0.992188"/><stop stop-opacity="1" stop-color="rgb(20.799255%, 19.999695%, 80.39856%)" offset="1"/></radialGradient><clipPath id="d9fae7e688"><path d="M 335.746094 149 L 498 149 L 498 422 L 335.746094 422 Z M 335.746094 149 " clip-rule="nonzero"/></clipPath><clipPath id="8e162b89c0"><path d="M 400 436.566406 L 497.890625 436.566406 L 497.890625 534.882812 L 400 534.882812 Z M 400 436.566406 " clip-rule="nonzero"/></clipPath><clipPath id="1c8bdcc792"><path d="M 497 139.46875 L 694 139.46875 L 694 519 L 497 519 Z M 497 139.46875 " clip-rule="nonzero"/></clipPath><clipPath id="1fa1846f0f"><path d="M 693.027344 196.058594 L 864.453125 196.058594 L 864.453125 532.769531 L 693.027344 532.769531 Z M 693.027344 196.058594 " clip-rule="nonzero"/></clipPath></defs><g clip-path="url(#6b67e90e6a)"><path fill="#ffffff" d="M 0.886719 0 L 1199.113281 0 L 1199.113281 674 L 0.886719 674 Z M 0.886719 0 " fill-opacity="1" fill-rule="nonzero"/><path fill="url(#3600f0a7bc)" d="M 0.886719 0 L 0.886719 674 L 1199.113281 674 L 1199.113281 0 Z M 0.886719 0 " fill-rule="nonzero"/></g><g clip-path="url(#d9fae7e688)"><path fill="#287939" d="M 484.996094 159.246094 C 470.574219 159.734375 463.976562 147.578125 454.257812 149.214844 C 445.628906 150.664062 444.921875 161.230469 439.796875 169.277344 C 439.796875 169.277344 435.949219 175.238281 424.273438 181.867188 C 424.292969 181.726562 424.3125 181.617188 424.335938 181.476562 C 424.058594 183.292969 423.816406 184.929688 423.519531 186.839844 C 414.195312 247.832031 406.976562 249.988281 396.160156 265.277344 C 377.011719 292.367188 352.527344 304.457031 336.121094 310.804688 C 332.417969 312.238281 357.378906 309.304688 375.941406 343.261719 C 383.804688 357.644531 403.992188 374.980469 399.890625 391.398438 C 397.304688 401.738281 418.792969 404.699219 418.097656 413.828125 C 417.863281 416.882812 416.839844 419.054688 415.738281 421.742188 C 415.738281 421.742188 417.808594 421.101562 417.808594 421.089844 C 421.878906 420.421875 423.59375 420.328125 424.804688 420.214844 C 427.808594 419.949219 431 419.542969 437.382812 419.683594 C 467.238281 420.355469 474.75 419.96875 497.203125 418.84375 L 497.203125 154.210938 C 493.085938 156.289062 490.871094 159.046875 484.996094 159.246094 " fill-opacity="1" fill-rule="nonzero"/></g><g clip-path="url(#8e162b89c0)"><path fill="#287939" d="M 483.433594 444.007812 C 481.933594 456.695312 470.121094 462.449219 462.691406 462.324219 C 436.421875 461.890625 424.148438 461.503906 416.953125 461.222656 C 411.15625 460.988281 409.859375 460.855469 406.210938 460.796875 C 404.171875 460.761719 402.40625 460.789062 400.609375 460.808594 C 400.539062 467.558594 402.441406 473.058594 401.824219 494.101562 C 401.109375 518.433594 398.019531 528.167969 407.25 532.96875 C 411.382812 535.128906 415.488281 534.976562 419.726562 534.769531 C 425.398438 527.707031 432.179688 521.320312 446.121094 519.800781 C 470.113281 517.207031 482.046875 522.90625 497.203125 518.285156 L 497.203125 436.652344 C 490.191406 436.9375 484.089844 438.339844 483.433594 444.007812 " fill-opacity="1" fill-rule="nonzero"/></g><g clip-path="url(#1c8bdcc792)"><path fill="#edde2f" d="M 624.589844 315.257812 L 642.726562 371.101562 L 595.242188 336.59375 L 547.769531 371.101562 L 565.898438 315.257812 L 518.425781 280.746094 L 577.117188 280.746094 L 595.242188 224.894531 L 613.378906 280.746094 L 672.070312 280.746094 Z M 684.777344 189.097656 C 670.476562 180.191406 659.296875 185.042969 649.003906 178.515625 C 640.511719 173.125 636.625 168.167969 629.246094 156.328125 C 624.417969 148.59375 594.601562 140.617188 575.917969 141.027344 C 560.242188 141.375 546.78125 135.832031 546.167969 143.773438 C 545.867188 147.742188 530.199219 152.761719 510.316406 151.925781 C 503.8125 151.652344 500.050781 152.765625 497.203125 154.203125 L 497.203125 418.835938 C 498.355469 418.789062 499.53125 418.734375 500.757812 418.667969 C 522.335938 417.601562 512.183594 399.480469 527.4375 399.605469 C 574.417969 399.980469 548.882812 404.21875 589.871094 413.414062 C 598.164062 415.28125 601.832031 425.496094 608.355469 426.097656 C 625.691406 427.691406 640.660156 417.515625 646.523438 424.289062 C 652.453125 431.125 660.484375 443.6875 649.382812 445.1875 C 630.855469 447.695312 587.878906 452.460938 570.582031 439.332031 C 559.203125 430.691406 551.105469 420.488281 541.5 418.628906 C 531.707031 416.734375 547.082031 432.644531 513.925781 436.40625 C 509.421875 436.917969 503 436.40625 497.203125 436.652344 L 497.203125 518.285156 C 499.109375 517.707031 501.050781 516.984375 503.078125 516.046875 C 511.996094 511.917969 519.960938 504.128906 519.960938 504.128906 C 519.960938 504.128906 602.238281 504.882812 693.28125 504.183594 L 693.28125 196.832031 C 691.746094 194.375 689.199219 191.859375 684.777344 189.105469 " fill-opacity="1" fill-rule="nonzero"/></g><g clip-path="url(#1fa1846f0f)"><path fill="#d01f26" d="M 815.285156 419.683594 C 815.285156 419.683594 816.488281 370.566406 815.886719 349.238281 C 815.6875 342.363281 797.203125 339.421875 797.203125 339.421875 C 797.203125 339.421875 797.003906 326.492188 797.304688 310.597656 C 786.984375 308.851562 776.265625 294.722656 770.214844 288.792969 C 758.617188 277.4375 754.535156 282.085938 745.601562 267.144531 C 735.390625 250.09375 738.152344 248.207031 715.765625 232.820312 C 689.859375 215.019531 699.285156 206.410156 693.28125 196.828125 L 693.28125 504.179688 C 695.421875 504.160156 697.570312 504.140625 699.710938 504.125 C 730.613281 503.867188 732.6875 531.042969 762.25 531.71875 C 804.582031 532.691406 864.085938 531.71875 864.085938 531.71875 C 864.085938 531.71875 864.253906 491.269531 864.445312 459.917969 C 864.546875 443.957031 815.285156 419.679688 815.285156 419.679688 " fill-opacity="1" fill-rule="nonzero"/></g><path fill="#287939" d="M 595.242188 224.894531 L 577.117188 280.746094 L 518.425781 280.746094 L 565.898438 315.257812 L 547.769531 371.101562 L 595.242188 336.59375 L 642.726562 371.101562 L 624.589844 315.257812 L 672.070312 280.746094 L 613.378906 280.746094 L 595.242188 224.894531 " fill-opacity="1" fill-rule="nonzero"/></svg>