<svg xmlns="http://www.w3.org/2000/svg" xmlns:xlink="http://www.w3.org/1999/xlink" width="1600" zoomAndPan="magnify" viewBox="0 0 1200 675.000002" height="900" preserveAspectRatio="xMidYMid meet" version="1.0"><defs><clipPath id="c75bcfe75d"><path d="M 0.886719 0 L 1199.113281 0 L 1199.113281 674 L 0.886719 674 Z M 0.886719 0 " clip-rule="nonzero"/></clipPath><linearGradient x1="0" gradientTransform="matrix(0.748891, 0, 0, 0.748891, 0.887572, 0.0000199704)" y1="450" x2="1599.999933" gradientUnits="userSpaceOnUse" y2="450" id="17e7917689"><stop stop-opacity="1" stop-color="rgb(100%, 19.198608%, 19.198608%)" offset="0"/><stop stop-opacity="1" stop-color="rgb(100%, 19.345093%, 19.241333%)" offset="0.0078125"/><stop stop-opacity="1" stop-color="rgb(100%, 19.639587%, 19.328308%)" offset="0.015625"/><stop stop-opacity="1" stop-color="rgb(100%, 19.934082%, 19.413757%)" offset="0.0234375"/><stop stop-opacity="1" stop-color="rgb(100%, 20.230103%, 19.499207%)" offset="0.03125"/><stop stop-opacity="1" stop-color="rgb(100%, 20.524597%, 19.586182%)" offset="0.0390625"/><stop stop-opacity="1" stop-color="rgb(100%, 20.819092%, 19.671631%)" offset="0.046875"/><stop stop-opacity="1" stop-color="rgb(100%, 21.113586%, 19.75708%)" offset="0.0546875"/><stop stop-opacity="1" stop-color="rgb(100%, 21.408081%, 19.844055%)" offset="0.0625"/><stop stop-opacity="1" stop-color="rgb(100%, 21.702576%, 19.929504%)" offset="0.0703125"/><stop stop-opacity="1" stop-color="rgb(100%, 21.99707%, 20.014954%)" offset="0.078125"/><stop stop-opacity="1" stop-color="rgb(100%, 22.291565%, 20.101929%)" offset="0.0859375"/><stop stop-opacity="1" stop-color="rgb(100%, 22.58606%, 20.187378%)" offset="0.09375"/><stop stop-opacity="1" stop-color="rgb(100%, 22.880554%, 20.272827%)" offset="0.101562"/><stop stop-opacity="1" stop-color="rgb(100%, 23.175049%, 20.359802%)" offset="0.109375"/><stop stop-opacity="1" stop-color="rgb(100%, 23.469543%, 20.445251%)" offset="0.117188"/><stop stop-opacity="1" stop-color="rgb(100%, 23.764038%, 20.530701%)" offset="0.125"/><stop stop-opacity="1" stop-color="rgb(100%, 24.058533%, 20.617676%)" offset="0.132812"/><stop stop-opacity="1" stop-color="rgb(100%, 24.353027%, 20.703125%)" offset="0.140625"/><stop stop-opacity="1" stop-color="rgb(100%, 24.647522%, 20.788574%)" offset="0.148438"/><stop stop-opacity="1" stop-color="rgb(100%, 24.942017%, 20.874023%)" offset="0.15625"/><stop stop-opacity="1" stop-color="rgb(100%, 25.236511%, 20.960999%)" offset="0.164062"/><stop stop-opacity="1" stop-color="rgb(100%, 25.531006%, 21.046448%)" offset="0.171875"/><stop stop-opacity="1" stop-color="rgb(100%, 25.8255%, 21.131897%)" offset="0.179688"/><stop stop-opacity="1" stop-color="rgb(100%, 26.119995%, 21.218872%)" offset="0.1875"/><stop stop-opacity="1" stop-color="rgb(100%, 26.41449%, 21.304321%)" offset="0.195312"/><stop stop-opacity="1" stop-color="rgb(100%, 26.708984%, 21.389771%)" offset="0.203125"/><stop stop-opacity="1" stop-color="rgb(100%, 27.003479%, 21.476746%)" offset="0.210938"/><stop stop-opacity="1" stop-color="rgb(100%, 27.297974%, 21.562195%)" offset="0.21875"/><stop stop-opacity="1" stop-color="rgb(100%, 27.592468%, 21.647644%)" offset="0.226562"/><stop stop-opacity="1" stop-color="rgb(100%, 27.886963%, 21.734619%)" offset="0.234375"/><stop stop-opacity="1" stop-color="rgb(100%, 28.181458%, 21.820068%)" offset="0.242188"/><stop stop-opacity="1" stop-color="rgb(100%, 28.475952%, 21.905518%)" offset="0.25"/><stop stop-opacity="1" stop-color="rgb(100%, 28.770447%, 21.992493%)" offset="0.257812"/><stop stop-opacity="1" stop-color="rgb(100%, 29.064941%, 22.077942%)" offset="0.265625"/><stop stop-opacity="1" stop-color="rgb(100%, 29.359436%, 22.163391%)" offset="0.273438"/><stop stop-opacity="1" stop-color="rgb(100%, 29.653931%, 22.250366%)" offset="0.28125"/><stop stop-opacity="1" stop-color="rgb(100%, 29.948425%, 22.335815%)" offset="0.289062"/><stop stop-opacity="1" stop-color="rgb(100%, 30.24292%, 22.421265%)" offset="0.296875"/><stop stop-opacity="1" stop-color="rgb(100%, 30.537415%, 22.50824%)" offset="0.304688"/><stop stop-opacity="1" stop-color="rgb(100%, 30.831909%, 22.593689%)" offset="0.3125"/><stop stop-opacity="1" stop-color="rgb(100%, 31.126404%, 22.679138%)" offset="0.320312"/><stop stop-opacity="1" stop-color="rgb(100%, 31.420898%, 22.766113%)" offset="0.328125"/><stop stop-opacity="1" stop-color="rgb(100%, 31.715393%, 22.851562%)" offset="0.335938"/><stop stop-opacity="1" stop-color="rgb(100%, 32.009888%, 22.937012%)" offset="0.34375"/><stop stop-opacity="1" stop-color="rgb(100%, 32.304382%, 23.022461%)" offset="0.351562"/><stop stop-opacity="1" stop-color="rgb(100%, 32.600403%, 23.109436%)" offset="0.359375"/><stop stop-opacity="1" stop-color="rgb(100%, 32.894897%, 23.194885%)" offset="0.367188"/><stop stop-opacity="1" stop-color="rgb(100%, 33.189392%, 23.280334%)" offset="0.375"/><stop stop-opacity="1" stop-color="rgb(100%, 33.483887%, 23.36731%)" offset="0.382812"/><stop stop-opacity="1" stop-color="rgb(100%, 33.778381%, 23.452759%)" offset="0.390625"/><stop stop-opacity="1" stop-color="rgb(100%, 34.072876%, 23.538208%)" offset="0.398438"/><stop stop-opacity="1" stop-color="rgb(100%, 34.367371%, 23.625183%)" offset="0.40625"/><stop stop-opacity="1" stop-color="rgb(100%, 34.661865%, 23.710632%)" offset="0.414062"/><stop stop-opacity="1" stop-color="rgb(100%, 34.95636%, 23.796082%)" offset="0.421875"/><stop stop-opacity="1" stop-color="rgb(100%, 35.250854%, 23.883057%)" offset="0.429688"/><stop stop-opacity="1" stop-color="rgb(100%, 35.545349%, 23.968506%)" offset="0.4375"/><stop stop-opacity="1" stop-color="rgb(100%, 35.839844%, 24.053955%)" offset="0.445312"/><stop stop-opacity="1" stop-color="rgb(100%, 36.134338%, 24.14093%)" offset="0.453125"/><stop stop-opacity="1" stop-color="rgb(100%, 36.428833%, 24.226379%)" offset="0.460938"/><stop stop-opacity="1" stop-color="rgb(100%, 36.723328%, 24.311829%)" offset="0.46875"/><stop stop-opacity="1" stop-color="rgb(100%, 37.017822%, 24.398804%)" offset="0.476562"/><stop stop-opacity="1" stop-color="rgb(100%, 37.312317%, 24.484253%)" offset="0.484375"/><stop stop-opacity="1" stop-color="rgb(100%, 37.606812%, 24.569702%)" offset="0.492188"/><stop stop-opacity="1" stop-color="rgb(100%, 37.901306%, 24.656677%)" offset="0.5"/><stop stop-opacity="1" stop-color="rgb(100%, 38.195801%, 24.742126%)" offset="0.507812"/><stop stop-opacity="1" stop-color="rgb(100%, 38.490295%, 24.827576%)" offset="0.515625"/><stop stop-opacity="1" stop-color="rgb(100%, 38.78479%, 24.914551%)" offset="0.523438"/><stop stop-opacity="1" stop-color="rgb(100%, 39.079285%, 25%)" offset="0.53125"/><stop stop-opacity="1" stop-color="rgb(100%, 39.373779%, 25.085449%)" offset="0.539062"/><stop stop-opacity="1" stop-color="rgb(100%, 39.668274%, 25.170898%)" offset="0.546875"/><stop stop-opacity="1" stop-color="rgb(100%, 39.962769%, 25.257874%)" offset="0.554688"/><stop stop-opacity="1" stop-color="rgb(100%, 40.257263%, 25.343323%)" offset="0.5625"/><stop stop-opacity="1" stop-color="rgb(100%, 40.551758%, 25.428772%)" offset="0.570312"/><stop stop-opacity="1" stop-color="rgb(100%, 40.846252%, 25.515747%)" offset="0.578125"/><stop stop-opacity="1" stop-color="rgb(100%, 41.140747%, 25.601196%)" offset="0.585938"/><stop stop-opacity="1" stop-color="rgb(100%, 41.435242%, 25.686646%)" offset="0.59375"/><stop stop-opacity="1" stop-color="rgb(100%, 41.729736%, 25.773621%)" offset="0.601562"/><stop stop-opacity="1" stop-color="rgb(100%, 42.024231%, 25.85907%)" offset="0.609375"/><stop stop-opacity="1" stop-color="rgb(100%, 42.318726%, 25.944519%)" offset="0.617188"/><stop stop-opacity="1" stop-color="rgb(100%, 42.61322%, 26.031494%)" offset="0.625"/><stop stop-opacity="1" stop-color="rgb(100%, 42.907715%, 26.116943%)" offset="0.632812"/><stop stop-opacity="1" stop-color="rgb(100%, 43.202209%, 26.202393%)" offset="0.640625"/><stop stop-opacity="1" stop-color="rgb(100%, 43.496704%, 26.289368%)" offset="0.648438"/><stop stop-opacity="1" stop-color="rgb(100%, 43.791199%, 26.374817%)" offset="0.65625"/><stop stop-opacity="1" stop-color="rgb(100%, 44.085693%, 26.460266%)" offset="0.664062"/><stop stop-opacity="1" stop-color="rgb(100%, 44.380188%, 26.547241%)" offset="0.671875"/><stop stop-opacity="1" stop-color="rgb(100%, 44.674683%, 26.63269%)" offset="0.679688"/><stop stop-opacity="1" stop-color="rgb(100%, 44.970703%, 26.71814%)" offset="0.6875"/><stop stop-opacity="1" stop-color="rgb(100%, 45.265198%, 26.805115%)" offset="0.695312"/><stop stop-opacity="1" stop-color="rgb(100%, 45.559692%, 26.890564%)" offset="0.703125"/><stop stop-opacity="1" stop-color="rgb(100%, 45.854187%, 26.976013%)" offset="0.710938"/><stop stop-opacity="1" stop-color="rgb(100%, 46.148682%, 27.062988%)" offset="0.71875"/><stop stop-opacity="1" stop-color="rgb(100%, 46.443176%, 27.148438%)" offset="0.726562"/><stop stop-opacity="1" stop-color="rgb(100%, 46.737671%, 27.233887%)" offset="0.734375"/><stop stop-opacity="1" stop-color="rgb(100%, 47.032166%, 27.319336%)" offset="0.742188"/><stop stop-opacity="1" stop-color="rgb(100%, 47.32666%, 27.406311%)" offset="0.75"/><stop stop-opacity="1" stop-color="rgb(100%, 47.621155%, 27.49176%)" offset="0.757812"/><stop stop-opacity="1" stop-color="rgb(100%, 47.915649%, 27.577209%)" offset="0.765625"/><stop stop-opacity="1" stop-color="rgb(100%, 48.210144%, 27.664185%)" offset="0.773438"/><stop stop-opacity="1" stop-color="rgb(100%, 48.504639%, 27.749634%)" offset="0.78125"/><stop stop-opacity="1" stop-color="rgb(100%, 48.799133%, 27.835083%)" offset="0.789062"/><stop stop-opacity="1" stop-color="rgb(100%, 49.093628%, 27.922058%)" offset="0.796875"/><stop stop-opacity="1" stop-color="rgb(100%, 49.388123%, 28.007507%)" offset="0.804688"/><stop stop-opacity="1" stop-color="rgb(100%, 49.682617%, 28.092957%)" offset="0.8125"/><stop stop-opacity="1" stop-color="rgb(100%, 49.977112%, 28.179932%)" offset="0.820312"/><stop stop-opacity="1" stop-color="rgb(100%, 50.271606%, 28.265381%)" offset="0.828125"/><stop stop-opacity="1" stop-color="rgb(100%, 50.566101%, 28.35083%)" offset="0.835938"/><stop stop-opacity="1" stop-color="rgb(100%, 50.860596%, 28.437805%)" offset="0.84375"/><stop stop-opacity="1" stop-color="rgb(100%, 51.15509%, 28.523254%)" offset="0.851562"/><stop stop-opacity="1" stop-color="rgb(100%, 51.449585%, 28.608704%)" offset="0.859375"/><stop stop-opacity="1" stop-color="rgb(100%, 51.74408%, 28.695679%)" offset="0.867188"/><stop stop-opacity="1" stop-color="rgb(100%, 52.038574%, 28.781128%)" offset="0.875"/><stop stop-opacity="1" stop-color="rgb(100%, 52.333069%, 28.866577%)" offset="0.882812"/><stop stop-opacity="1" stop-color="rgb(100%, 52.627563%, 28.953552%)" offset="0.890625"/><stop stop-opacity="1" stop-color="rgb(100%, 52.922058%, 29.039001%)" offset="0.898438"/><stop stop-opacity="1" stop-color="rgb(100%, 53.216553%, 29.124451%)" offset="0.90625"/><stop stop-opacity="1" stop-color="rgb(100%, 53.511047%, 29.211426%)" offset="0.914062"/><stop stop-opacity="1" stop-color="rgb(100%, 53.805542%, 29.296875%)" offset="0.921875"/><stop stop-opacity="1" stop-color="rgb(100%, 54.100037%, 29.382324%)" offset="0.929688"/><stop stop-opacity="1" stop-color="rgb(100%, 54.394531%, 29.467773%)" offset="0.9375"/><stop stop-opacity="1" stop-color="rgb(100%, 54.689026%, 29.554749%)" offset="0.945312"/><stop stop-opacity="1" stop-color="rgb(100%, 54.983521%, 29.640198%)" offset="0.953125"/><stop stop-opacity="1" stop-color="rgb(100%, 55.278015%, 29.725647%)" offset="0.960938"/><stop stop-opacity="1" stop-color="rgb(100%, 55.57251%, 29.812622%)" offset="0.96875"/><stop stop-opacity="1" stop-color="rgb(100%, 55.867004%, 29.898071%)" offset="0.976562"/><stop stop-opacity="1" stop-color="rgb(100%, 56.161499%, 29.983521%)" offset="0.984375"/><stop stop-opacity="1" stop-color="rgb(100%, 56.455994%, 30.070496%)" offset="0.992188"/><stop stop-opacity="1" stop-color="rgb(100%, 56.750488%, 30.155945%)" offset="1"/></linearGradient><clipPath id="66fc898e11"><path d="M 251 19.03125 L 837 19.03125 L 837 645 L 251 645 Z M 251 19.03125 " clip-rule="nonzero"/></clipPath><clipPath id="e1393c0027"><path d="M 520 43 L 949.296875 43 L 949.296875 565 L 520 565 Z M 520 43 " clip-rule="nonzero"/></clipPath><clipPath id="759936c995"><path d="M 383 350 L 791 350 L 791 654.839844 L 383 654.839844 Z M 383 350 " clip-rule="nonzero"/></clipPath><clipPath id="0b1cdc71c9"><path d="M 417 399 L 784 399 L 784 654.839844 L 417 654.839844 Z M 417 399 " clip-rule="nonzero"/></clipPath><clipPath id="4de774de22"><path d="M 383 415 L 791 415 L 791 654.839844 L 383 654.839844 Z M 383 415 " clip-rule="nonzero"/></clipPath></defs><g clip-path="url(#c75bcfe75d)"><path fill="#ffffff" d="M 0.886719 0 L 1199.113281 0 L 1199.113281 674 L 0.886719 674 Z M 0.886719 0 " fill-opacity="1" fill-rule="nonzero"/><path fill="url(#17e7917689)" d="M 0.886719 0 L 0.886719 674 L 1199.113281 674 L 1199.113281 0 Z M 0.886719 0 " fill-rule="nonzero"/></g><g clip-path="url(#66fc898e11)"><path fill="#ededed" d="M 836.71875 455.597656 L 486.121094 644.363281 L 251.023438 207.742188 L 601.613281 18.964844 L 836.71875 455.597656 " fill-opacity="1" fill-rule="nonzero"/></g><path fill="#c5c4c4" d="M 303.964844 242.472656 L 298.273438 231.894531 L 511.148438 117.28125 L 516.847656 127.855469 L 303.964844 242.472656 " fill-opacity="1" fill-rule="nonzero"/><path fill="#c5c4c4" d="M 315.652344 264.164062 L 309.945312 253.589844 L 522.832031 138.972656 L 528.523438 149.546875 L 315.652344 264.164062 " fill-opacity="1" fill-rule="nonzero"/><path fill="#c5c4c4" d="M 327.324219 285.855469 L 321.632812 275.28125 L 534.511719 160.65625 L 540.203125 171.242188 L 327.324219 285.855469 " fill-opacity="1" fill-rule="nonzero"/><path fill="#c5c4c4" d="M 339 307.542969 L 333.300781 296.964844 L 542.742188 184.203125 L 541.847656 198.335938 L 339 307.542969 " fill-opacity="1" fill-rule="nonzero"/><path fill="#c5c4c4" d="M 350.679688 329.234375 L 344.988281 318.65625 L 540.898438 213.179688 L 540 227.304688 L 350.679688 329.234375 " fill-opacity="1" fill-rule="nonzero"/><path fill="#c5c4c4" d="M 362.363281 350.925781 L 356.664062 340.351562 L 539.058594 242.140625 L 538.160156 256.269531 L 362.363281 350.925781 " fill-opacity="1" fill-rule="nonzero"/><path fill="#c5c4c4" d="M 374.042969 372.617188 L 368.34375 362.035156 L 537.222656 271.113281 L 536.324219 285.246094 L 374.042969 372.617188 " fill-opacity="1" fill-rule="nonzero"/><path fill="#c5c4c4" d="M 385.71875 394.304688 L 380.027344 383.726562 L 535.375 300.082031 L 534.476562 314.207031 L 385.71875 394.304688 " fill-opacity="1" fill-rule="nonzero"/><path fill="#c5c4c4" d="M 397.398438 415.996094 L 391.707031 405.417969 L 533.535156 329.050781 L 532.636719 343.179688 L 397.398438 415.996094 " fill-opacity="1" fill-rule="nonzero"/><path fill="#c5c4c4" d="M 409.078125 437.679688 L 403.386719 427.105469 L 531.691406 358.019531 L 530.792969 372.148438 L 409.078125 437.679688 " fill-opacity="1" fill-rule="nonzero"/><path fill="#c5c4c4" d="M 420.75 459.375 L 415.0625 448.796875 L 529.851562 386.992188 L 528.953125 401.117188 L 420.75 459.375 " fill-opacity="1" fill-rule="nonzero"/><path fill="#c5c4c4" d="M 432.433594 481.066406 L 426.742188 470.488281 L 528.011719 415.960938 L 527.113281 430.085938 L 432.433594 481.066406 " fill-opacity="1" fill-rule="nonzero"/><path fill="#c5c4c4" d="M 444.117188 502.75 L 438.414062 492.175781 L 526.167969 444.929688 L 525.269531 459.058594 L 444.117188 502.75 " fill-opacity="1" fill-rule="nonzero"/><path fill="#c5c4c4" d="M 455.789062 524.441406 L 450.097656 513.867188 L 524.328125 473.898438 L 523.429688 488.027344 L 455.789062 524.441406 " fill-opacity="1" fill-rule="nonzero"/><path fill="#c5c4c4" d="M 467.46875 546.136719 L 461.777344 535.558594 L 522.488281 502.871094 L 521.589844 516.996094 L 467.46875 546.136719 " fill-opacity="1" fill-rule="nonzero"/><path fill="#c5c4c4" d="M 479.152344 567.820312 L 473.453125 557.246094 L 520.644531 531.839844 L 520.207031 538.753906 L 531.78125 539.488281 L 479.152344 567.820312 " fill-opacity="1" fill-rule="nonzero"/><path fill="#c5c4c4" d="M 490.832031 589.511719 L 485.132812 578.9375 L 555.585938 541 L 578.261719 542.4375 L 490.832031 589.511719 " fill-opacity="1" fill-rule="nonzero"/><path fill="#6bc5bb" d="M 632.28125 139.539062 L 560.886719 177.984375 L 524.363281 110.164062 L 595.765625 71.71875 L 632.28125 139.539062 " fill-opacity="1" fill-rule="nonzero"/><path fill="#183651" d="M 671.292969 211.984375 L 599.890625 250.429688 L 563.378906 182.609375 L 634.773438 144.171875 L 671.292969 211.984375 " fill-opacity="1" fill-rule="nonzero"/><path fill="#f9a72b" d="M 710.308594 284.4375 L 638.90625 322.882812 L 602.382812 255.0625 L 673.78125 216.617188 L 710.308594 284.4375 " fill-opacity="1" fill-rule="nonzero"/><path fill="#648f16" d="M 749.308594 356.882812 L 677.914062 395.328125 L 641.40625 327.507812 L 712.792969 289.070312 L 749.308594 356.882812 " fill-opacity="1" fill-rule="nonzero"/><path fill="#6bc5bb" d="M 788.320312 429.335938 L 716.925781 467.78125 L 680.410156 399.960938 L 751.808594 361.515625 L 788.320312 429.335938 " fill-opacity="1" fill-rule="nonzero"/><g clip-path="url(#e1393c0027)"><path fill="#e5e4e4" d="M 917.597656 564.003906 L 520.207031 538.753906 L 551.664062 43.851562 L 949.042969 69.101562 L 917.597656 564.003906 " fill-opacity="1" fill-rule="nonzero"/></g><path fill="#bdbcbd" d="M 819.511719 116.667969 L 578.21875 101.335938 L 578.980469 89.347656 L 820.277344 104.683594 L 819.511719 116.667969 " fill-opacity="1" fill-rule="nonzero"/><path fill="#bdbcbd" d="M 817.945312 141.261719 L 576.65625 125.925781 L 577.414062 113.933594 L 818.703125 129.265625 L 817.945312 141.261719 " fill-opacity="1" fill-rule="nonzero"/><path fill="#bdbcbd" d="M 816.386719 165.84375 L 575.089844 150.507812 L 575.855469 138.515625 L 817.136719 153.851562 L 816.386719 165.84375 " fill-opacity="1" fill-rule="nonzero"/><path fill="#bdbcbd" d="M 814.816406 190.425781 L 573.53125 175.09375 L 574.289062 163.101562 L 815.585938 178.433594 L 814.816406 190.425781 " fill-opacity="1" fill-rule="nonzero"/><path fill="#bdbcbd" d="M 813.257812 215.011719 L 571.96875 199.675781 L 572.726562 187.683594 L 814.015625 203.015625 L 813.257812 215.011719 " fill-opacity="1" fill-rule="nonzero"/><path fill="#bdbcbd" d="M 811.691406 239.59375 L 570.402344 224.261719 L 571.167969 212.273438 L 812.457031 227.609375 L 811.691406 239.59375 " fill-opacity="1" fill-rule="nonzero"/><path fill="#bdbcbd" d="M 810.128906 264.179688 L 568.835938 248.84375 L 569.601562 236.859375 L 810.898438 252.191406 L 810.128906 264.179688 " fill-opacity="1" fill-rule="nonzero"/><path fill="#bdbcbd" d="M 808.570312 288.761719 L 567.28125 273.425781 L 568.042969 261.441406 L 809.335938 276.773438 L 808.570312 288.761719 " fill-opacity="1" fill-rule="nonzero"/><path fill="#bdbcbd" d="M 807.011719 313.34375 L 565.722656 298.011719 L 566.480469 286.023438 L 807.769531 301.359375 L 807.011719 313.34375 " fill-opacity="1" fill-rule="nonzero"/><path fill="#bdbcbd" d="M 805.445312 337.9375 L 564.15625 322.601562 L 564.921875 310.609375 L 806.210938 325.941406 L 805.445312 337.9375 " fill-opacity="1" fill-rule="nonzero"/><path fill="#bdbcbd" d="M 803.882812 362.519531 L 562.589844 347.183594 L 563.355469 335.191406 L 804.644531 350.527344 L 803.882812 362.519531 " fill-opacity="1" fill-rule="nonzero"/><path fill="#bdbcbd" d="M 802.324219 387.101562 L 561.035156 371.769531 L 561.792969 359.777344 L 803.082031 375.109375 L 802.324219 387.101562 " fill-opacity="1" fill-rule="nonzero"/><path fill="#bdbcbd" d="M 800.757812 411.6875 L 559.46875 396.351562 L 560.226562 384.359375 L 801.515625 399.691406 L 800.757812 411.6875 " fill-opacity="1" fill-rule="nonzero"/><path fill="#bdbcbd" d="M 799.191406 436.269531 L 557.902344 420.9375 L 558.667969 408.949219 L 799.957031 424.285156 L 799.191406 436.269531 " fill-opacity="1" fill-rule="nonzero"/><path fill="#bdbcbd" d="M 797.636719 460.855469 L 556.339844 445.519531 L 557.101562 433.535156 L 798.394531 448.867188 L 797.636719 460.855469 " fill-opacity="1" fill-rule="nonzero"/><path fill="#bdbcbd" d="M 796.070312 485.4375 L 554.78125 470.105469 L 555.546875 458.117188 L 796.828125 473.449219 L 796.070312 485.4375 " fill-opacity="1" fill-rule="nonzero"/><path fill="#bdbcbd" d="M 794.511719 510.027344 L 553.214844 494.6875 L 553.980469 482.699219 L 795.269531 498.035156 L 794.511719 510.027344 " fill-opacity="1" fill-rule="nonzero"/><path fill="#6bc5bb" d="M 911.292969 187.648438 L 830.359375 182.503906 L 835.246094 105.636719 L 916.179688 110.78125 L 911.292969 187.648438 " fill-opacity="1" fill-rule="nonzero"/><path fill="#183651" d="M 906.070312 269.765625 L 825.140625 264.621094 L 830.03125 187.753906 L 910.957031 192.898438 L 906.070312 269.765625 " fill-opacity="1" fill-rule="nonzero"/><path fill="#f9a72b" d="M 900.851562 351.886719 L 819.925781 346.742188 L 824.808594 269.871094 L 905.742188 275.015625 L 900.851562 351.886719 " fill-opacity="1" fill-rule="nonzero"/><path fill="#648f16" d="M 895.636719 433.996094 L 814.710938 428.859375 L 819.59375 351.984375 L 900.519531 357.128906 L 895.636719 433.996094 " fill-opacity="1" fill-rule="nonzero"/><path fill="#6bc5bb" d="M 890.421875 516.121094 L 809.488281 510.976562 L 814.375 434.109375 L 895.300781 439.253906 L 890.421875 516.121094 " fill-opacity="1" fill-rule="nonzero"/><g clip-path="url(#759936c995)"><path fill="#cb7124" d="M 515.625 374.359375 L 515.625 350.785156 L 383.265625 350.785156 L 383.265625 654.722656 L 790.574219 654.722656 L 790.574219 374.359375 L 515.625 374.359375 " fill-opacity="1" fill-rule="nonzero"/></g><path fill="#c4c3c3" d="M 763.730469 636.238281 L 398.269531 636.238281 L 398.269531 380.890625 L 763.730469 380.890625 L 763.730469 636.238281 " fill-opacity="1" fill-rule="nonzero"/><path fill="#dad9d9" d="M 772.40625 644.757812 L 406.945312 644.757812 L 406.945312 389.417969 L 772.40625 389.417969 L 772.40625 644.757812 " fill-opacity="1" fill-rule="nonzero"/><g clip-path="url(#0b1cdc71c9)"><path fill="#ffffff" d="M 783.289062 654.722656 L 417.828125 654.722656 L 417.828125 399.378906 L 783.289062 399.378906 L 783.289062 654.722656 " fill-opacity="1" fill-rule="nonzero"/></g><g clip-path="url(#4de774de22)"><path fill="#f9a72b" d="M 790.574219 654.722656 L 383.265625 654.722656 L 383.265625 415.785156 L 790.574219 415.785156 L 790.574219 654.722656 " fill-opacity="1" fill-rule="nonzero"/></g></svg>