<svg xmlns="http://www.w3.org/2000/svg" xmlns:xlink="http://www.w3.org/1999/xlink" width="300" zoomAndPan="magnify" viewBox="0 0 224.87999 48.75" height="65" preserveAspectRatio="xMidYMid meet" version="1.0"><defs><g/><clipPath id="29bd3cca56"><path d="M 51.402344 12.453125 L 63 12.453125 L 63 34.09375 L 51.402344 34.09375 Z M 51.402344 12.453125 " clip-rule="nonzero"/></clipPath><clipPath id="5ded4cc0a5"><path d="M 62 12.453125 L 74 12.453125 L 74 34.09375 L 62 34.09375 Z M 62 12.453125 " clip-rule="nonzero"/></clipPath><clipPath id="772fdf9660"><path d="M 73 12.453125 L 84.234375 12.453125 L 84.234375 34.09375 L 73 34.09375 Z M 73 12.453125 " clip-rule="nonzero"/></clipPath></defs><g fill="#ffffff" fill-opacity="1"><g transform="translate(85.485401, 32.112142)"><g><path d="M 16.796875 -13.390625 C 16.796875 -12.242188 16.53125 -11.195312 16 -10.25 C 15.476562 -9.3125 14.671875 -8.550781 13.578125 -7.96875 C 12.492188 -7.382812 11.148438 -7.09375 9.546875 -7.09375 L 6.5625 -7.09375 L 6.5625 0 L 1.75 0 L 1.75 -19.75 L 9.546875 -19.75 C 11.117188 -19.75 12.445312 -19.476562 13.53125 -18.9375 C 14.625 -18.394531 15.441406 -17.644531 15.984375 -16.6875 C 16.523438 -15.726562 16.796875 -14.628906 16.796875 -13.390625 Z M 9.171875 -10.921875 C 10.085938 -10.921875 10.769531 -11.132812 11.21875 -11.5625 C 11.675781 -12 11.90625 -12.609375 11.90625 -13.390625 C 11.90625 -14.179688 11.675781 -14.789062 11.21875 -15.21875 C 10.769531 -15.65625 10.085938 -15.875 9.171875 -15.875 L 6.5625 -15.875 L 6.5625 -10.921875 Z M 9.171875 -10.921875 "/></g></g></g><g fill="#ffffff" fill-opacity="1"><g transform="translate(103.03952, 32.112142)"><g><path d="M 6.46875 -19.75 L 6.46875 -7.9375 C 6.46875 -6.75 6.757812 -5.835938 7.34375 -5.203125 C 7.925781 -4.566406 8.78125 -4.25 9.90625 -4.25 C 11.03125 -4.25 11.890625 -4.566406 12.484375 -5.203125 C 13.085938 -5.835938 13.390625 -6.75 13.390625 -7.9375 L 13.390625 -19.75 L 18.203125 -19.75 L 18.203125 -7.96875 C 18.203125 -6.195312 17.828125 -4.703125 17.078125 -3.484375 C 16.328125 -2.265625 15.316406 -1.34375 14.046875 -0.71875 C 12.785156 -0.101562 11.378906 0.203125 9.828125 0.203125 C 8.265625 0.203125 6.867188 -0.0976562 5.640625 -0.703125 C 4.410156 -1.316406 3.4375 -2.238281 2.71875 -3.46875 C 2.007812 -4.695312 1.65625 -6.195312 1.65625 -7.96875 L 1.65625 -19.75 Z M 6.46875 -19.75 "/></g></g></g><g fill="#ffffff" fill-opacity="1"><g transform="translate(122.872298, 32.112142)"><g><path d="M 13.703125 -10.125 C 14.847656 -9.882812 15.765625 -9.316406 16.453125 -8.421875 C 17.148438 -7.535156 17.5 -6.519531 17.5 -5.375 C 17.5 -3.726562 16.921875 -2.421875 15.765625 -1.453125 C 14.617188 -0.484375 13.015625 0 10.953125 0 L 1.75 0 L 1.75 -19.75 L 10.640625 -19.75 C 12.640625 -19.75 14.207031 -19.289062 15.34375 -18.375 C 16.476562 -17.457031 17.046875 -16.210938 17.046875 -14.640625 C 17.046875 -13.472656 16.738281 -12.503906 16.125 -11.734375 C 15.519531 -10.960938 14.710938 -10.425781 13.703125 -10.125 Z M 6.5625 -11.765625 L 9.703125 -11.765625 C 10.492188 -11.765625 11.097656 -11.9375 11.515625 -12.28125 C 11.941406 -12.625 12.15625 -13.132812 12.15625 -13.8125 C 12.15625 -14.488281 11.941406 -15.003906 11.515625 -15.359375 C 11.097656 -15.722656 10.492188 -15.90625 9.703125 -15.90625 L 6.5625 -15.90625 Z M 10.109375 -3.890625 C 10.910156 -3.890625 11.53125 -4.070312 11.96875 -4.4375 C 12.414062 -4.800781 12.640625 -5.328125 12.640625 -6.015625 C 12.640625 -6.710938 12.40625 -7.257812 11.9375 -7.65625 C 11.476562 -8.050781 10.847656 -8.25 10.046875 -8.25 L 6.5625 -8.25 L 6.5625 -3.890625 Z M 10.109375 -3.890625 "/></g></g></g><g fill="#ffffff" fill-opacity="1"><g transform="translate(141.411026, 32.112142)"><g><path d="M 6.5625 -3.71875 L 12.859375 -3.71875 L 12.859375 0 L 1.75 0 L 1.75 -19.75 L 6.5625 -19.75 Z M 6.5625 -3.71875 "/></g></g></g><g fill="#ffffff" fill-opacity="1"><g transform="translate(154.829792, 32.112142)"><g><path d="M 6.5625 -19.75 L 6.5625 0 L 1.75 0 L 1.75 -19.75 Z M 6.5625 -19.75 "/></g></g></g><g fill="#ffffff" fill-opacity="1"><g transform="translate(163.128614, 32.112142)"><g><path d="M 15.8125 3.375 L 13.28125 -0.03125 C 12.53125 0.125 11.800781 0.203125 11.09375 0.203125 C 9.226562 0.203125 7.519531 -0.226562 5.96875 -1.09375 C 4.425781 -1.957031 3.195312 -3.160156 2.28125 -4.703125 C 1.375 -6.253906 0.921875 -8 0.921875 -9.9375 C 0.921875 -11.863281 1.375 -13.597656 2.28125 -15.140625 C 3.195312 -16.679688 4.425781 -17.878906 5.96875 -18.734375 C 7.519531 -19.597656 9.226562 -20.03125 11.09375 -20.03125 C 12.945312 -20.03125 14.644531 -19.597656 16.1875 -18.734375 C 17.738281 -17.878906 18.957031 -16.679688 19.84375 -15.140625 C 20.738281 -13.597656 21.1875 -11.863281 21.1875 -9.9375 C 21.1875 -8.25 20.84375 -6.703125 20.15625 -5.296875 C 19.476562 -3.898438 18.53125 -2.742188 17.3125 -1.828125 L 21.640625 3.375 Z M 5.859375 -9.9375 C 5.859375 -8.1875 6.332031 -6.789062 7.28125 -5.75 C 8.226562 -4.707031 9.5 -4.1875 11.09375 -4.1875 C 12.664062 -4.1875 13.925781 -4.710938 14.875 -5.765625 C 15.820312 -6.816406 16.296875 -8.207031 16.296875 -9.9375 C 16.296875 -11.675781 15.820312 -13.066406 14.875 -14.109375 C 13.925781 -15.148438 12.664062 -15.671875 11.09375 -15.671875 C 9.5 -15.671875 8.226562 -15.15625 7.28125 -14.125 C 6.332031 -13.09375 5.859375 -11.695312 5.859375 -9.9375 Z M 5.859375 -9.9375 "/></g></g></g><g fill="#ffffff" fill-opacity="1"><g transform="translate(185.296302, 32.112142)"><g><path d="M 6.46875 -19.75 L 6.46875 -7.9375 C 6.46875 -6.75 6.757812 -5.835938 7.34375 -5.203125 C 7.925781 -4.566406 8.78125 -4.25 9.90625 -4.25 C 11.03125 -4.25 11.890625 -4.566406 12.484375 -5.203125 C 13.085938 -5.835938 13.390625 -6.75 13.390625 -7.9375 L 13.390625 -19.75 L 18.203125 -19.75 L 18.203125 -7.96875 C 18.203125 -6.195312 17.828125 -4.703125 17.078125 -3.484375 C 16.328125 -2.265625 15.316406 -1.34375 14.046875 -0.71875 C 12.785156 -0.101562 11.378906 0.203125 9.828125 0.203125 C 8.265625 0.203125 6.867188 -0.0976562 5.640625 -0.703125 C 4.410156 -1.316406 3.4375 -2.238281 2.71875 -3.46875 C 2.007812 -4.695312 1.65625 -6.195312 1.65625 -7.96875 L 1.65625 -19.75 Z M 6.46875 -19.75 "/></g></g></g><g fill="#ffffff" fill-opacity="1"><g transform="translate(205.12908, 32.112142)"><g><path d="M 6.5625 -15.90625 L 6.5625 -11.90625 L 13 -11.90625 L 13 -8.1875 L 6.5625 -8.1875 L 6.5625 -3.859375 L 13.84375 -3.859375 L 13.84375 0 L 1.75 0 L 1.75 -19.75 L 13.84375 -19.75 L 13.84375 -15.90625 Z M 6.5625 -15.90625 "/></g></g></g><g clip-path="url(#29bd3cca56)"><path fill="#00853f" d="M 51.410156 12.453125 L 62.347656 12.453125 L 62.347656 34.09375 L 51.410156 34.09375 Z M 51.410156 12.453125 " fill-opacity="1" fill-rule="nonzero"/></g><g clip-path="url(#5ded4cc0a5)"><path fill="#fdef42" d="M 62.347656 12.453125 L 73.289062 12.453125 L 73.289062 34.09375 L 62.347656 34.09375 Z M 62.347656 12.453125 " fill-opacity="1" fill-rule="nonzero"/></g><g clip-path="url(#772fdf9660)"><path fill="#e31b23" d="M 73.289062 12.453125 L 84.230469 12.453125 L 84.230469 34.09375 L 73.289062 34.09375 Z M 73.289062 12.453125 " fill-opacity="1" fill-rule="nonzero"/></g><path fill="#00853f" d="M 67.820312 19.667969 L 68.636719 22.160156 L 71.285156 22.160156 L 69.144531 23.699219 L 69.960938 26.191406 L 67.820312 24.652344 L 65.675781 26.191406 L 66.492188 23.699219 L 64.351562 22.160156 L 67 22.160156 Z M 67.820312 19.667969 " fill-opacity="1" fill-rule="nonzero"/><g fill="#ffffff" fill-opacity="1"><g transform="translate(5.006767, 32.112142)"><g><path d="M 20.296875 -19.75 L 13.28125 0 L 7.265625 0 L 0.25 -19.75 L 5.375 -19.75 L 10.265625 -4.84375 L 15.203125 -19.75 Z M 20.296875 -19.75 "/></g></g></g><g fill="#ffffff" fill-opacity="1"><g transform="translate(25.542831, 32.112142)"><g><path d="M 6.5625 -19.75 L 6.5625 0 L 1.75 0 L 1.75 -19.75 Z M 6.5625 -19.75 "/></g></g></g><g fill="#ffffff" fill-opacity="1"><g transform="translate(33.841654, 32.112142)"><g><path d="M 6.5625 -15.90625 L 6.5625 -11.90625 L 13 -11.90625 L 13 -8.1875 L 6.5625 -8.1875 L 6.5625 -3.859375 L 13.84375 -3.859375 L 13.84375 0 L 1.75 0 L 1.75 -19.75 L 13.84375 -19.75 L 13.84375 -15.90625 Z M 6.5625 -15.90625 "/></g></g></g></svg>