<svg xmlns="http://www.w3.org/2000/svg" xmlns:xlink="http://www.w3.org/1999/xlink" width="175" zoomAndPan="magnify" viewBox="0 0 131.25 30.000001" height="40" preserveAspectRatio="xMidYMid meet" version="1.0"><defs><g/><clipPath id="367d4dc583"><path d="M 32.019531 8.621094 L 38 8.621094 L 38 20.234375 L 32.019531 20.234375 Z M 32.019531 8.621094 " clip-rule="nonzero"/></clipPath><clipPath id="ba26af5149"><path d="M 37 8.621094 L 44 8.621094 L 44 20.234375 L 37 20.234375 Z M 37 8.621094 " clip-rule="nonzero"/></clipPath><clipPath id="b4e9f253b4"><path d="M 43 8.621094 L 49.441406 8.621094 L 49.441406 20.234375 L 43 20.234375 Z M 43 8.621094 " clip-rule="nonzero"/></clipPath></defs><g fill="#ffffff" fill-opacity="1"><g transform="translate(52.764133, 18.886175)"><g><path d="M 9.265625 -7.390625 C 9.265625 -6.765625 9.117188 -6.1875 8.828125 -5.65625 C 8.546875 -5.132812 8.101562 -4.710938 7.5 -4.390625 C 6.894531 -4.066406 6.148438 -3.90625 5.265625 -3.90625 L 3.625 -3.90625 L 3.625 0 L 0.96875 0 L 0.96875 -10.90625 L 5.265625 -10.90625 C 6.128906 -10.90625 6.863281 -10.753906 7.46875 -10.453125 C 8.070312 -10.148438 8.519531 -9.734375 8.8125 -9.203125 C 9.113281 -8.679688 9.265625 -8.078125 9.265625 -7.390625 Z M 5.0625 -6.03125 C 5.570312 -6.03125 5.945312 -6.144531 6.1875 -6.375 C 6.4375 -6.613281 6.5625 -6.953125 6.5625 -7.390625 C 6.5625 -7.828125 6.4375 -8.164062 6.1875 -8.40625 C 5.945312 -8.644531 5.570312 -8.765625 5.0625 -8.765625 L 3.625 -8.765625 L 3.625 -6.03125 Z M 5.0625 -6.03125 "/></g></g></g><g fill="#ffffff" fill-opacity="1"><g transform="translate(62.444915, 18.886175)"><g><path d="M 3.578125 -10.90625 L 3.578125 -4.375 C 3.578125 -3.726562 3.734375 -3.226562 4.046875 -2.875 C 4.367188 -2.519531 4.84375 -2.34375 5.46875 -2.34375 C 6.09375 -2.34375 6.566406 -2.519531 6.890625 -2.875 C 7.222656 -3.226562 7.390625 -3.726562 7.390625 -4.375 L 7.390625 -10.90625 L 10.046875 -10.90625 L 10.046875 -4.390625 C 10.046875 -3.421875 9.835938 -2.597656 9.421875 -1.921875 C 9.015625 -1.253906 8.457031 -0.75 7.75 -0.40625 C 7.050781 -0.0625 6.273438 0.109375 5.421875 0.109375 C 4.554688 0.109375 3.785156 -0.0546875 3.109375 -0.390625 C 2.429688 -0.734375 1.894531 -1.242188 1.5 -1.921875 C 1.113281 -2.597656 0.921875 -3.421875 0.921875 -4.390625 L 0.921875 -10.90625 Z M 3.578125 -10.90625 "/></g></g></g><g fill="#ffffff" fill-opacity="1"><g transform="translate(73.382336, 18.886175)"><g><path d="M 7.5625 -5.59375 C 8.195312 -5.457031 8.703125 -5.140625 9.078125 -4.640625 C 9.460938 -4.148438 9.65625 -3.59375 9.65625 -2.96875 C 9.65625 -2.050781 9.335938 -1.328125 8.703125 -0.796875 C 8.066406 -0.265625 7.179688 0 6.046875 0 L 0.96875 0 L 0.96875 -10.90625 L 5.875 -10.90625 C 6.976562 -10.90625 7.84375 -10.648438 8.46875 -10.140625 C 9.09375 -9.628906 9.40625 -8.941406 9.40625 -8.078125 C 9.40625 -7.429688 9.238281 -6.894531 8.90625 -6.46875 C 8.570312 -6.050781 8.125 -5.757812 7.5625 -5.59375 Z M 3.625 -6.484375 L 5.359375 -6.484375 C 5.796875 -6.484375 6.128906 -6.578125 6.359375 -6.765625 C 6.585938 -6.960938 6.703125 -7.25 6.703125 -7.625 C 6.703125 -8 6.585938 -8.285156 6.359375 -8.484375 C 6.128906 -8.679688 5.796875 -8.78125 5.359375 -8.78125 L 3.625 -8.78125 Z M 5.578125 -2.140625 C 6.023438 -2.140625 6.367188 -2.238281 6.609375 -2.4375 C 6.847656 -2.644531 6.96875 -2.941406 6.96875 -3.328125 C 6.96875 -3.703125 6.84375 -4 6.59375 -4.21875 C 6.34375 -4.4375 5.992188 -4.546875 5.546875 -4.546875 L 3.625 -4.546875 L 3.625 -2.140625 Z M 5.578125 -2.140625 "/></g></g></g><g fill="#ffffff" fill-opacity="1"><g transform="translate(83.606111, 18.886175)"><g><path d="M 3.625 -2.046875 L 7.09375 -2.046875 L 7.09375 0 L 0.96875 0 L 0.96875 -10.90625 L 3.625 -10.90625 Z M 3.625 -2.046875 "/></g></g></g><g fill="#ffffff" fill-opacity="1"><g transform="translate(91.006322, 18.886175)"><g><path d="M 3.625 -10.90625 L 3.625 0 L 0.96875 0 L 0.96875 -10.90625 Z M 3.625 -10.90625 "/></g></g></g><g fill="#ffffff" fill-opacity="1"><g transform="translate(95.58297, 18.886175)"><g><path d="M 8.734375 1.859375 L 7.328125 -0.015625 C 6.910156 0.0664062 6.507812 0.109375 6.125 0.109375 C 5.09375 0.109375 4.148438 -0.125 3.296875 -0.59375 C 2.441406 -1.070312 1.765625 -1.738281 1.265625 -2.59375 C 0.765625 -3.457031 0.515625 -4.421875 0.515625 -5.484375 C 0.515625 -6.546875 0.765625 -7.5 1.265625 -8.34375 C 1.765625 -9.195312 2.441406 -9.863281 3.296875 -10.34375 C 4.148438 -10.820312 5.09375 -11.0625 6.125 -11.0625 C 7.144531 -11.0625 8.082031 -10.820312 8.9375 -10.34375 C 9.789062 -9.863281 10.460938 -9.195312 10.953125 -8.34375 C 11.441406 -7.5 11.6875 -6.546875 11.6875 -5.484375 C 11.6875 -4.546875 11.5 -3.691406 11.125 -2.921875 C 10.75 -2.148438 10.222656 -1.515625 9.546875 -1.015625 L 11.9375 1.859375 Z M 3.234375 -5.484375 C 3.234375 -4.515625 3.492188 -3.742188 4.015625 -3.171875 C 4.535156 -2.597656 5.238281 -2.3125 6.125 -2.3125 C 6.988281 -2.3125 7.679688 -2.597656 8.203125 -3.171875 C 8.734375 -3.753906 9 -4.523438 9 -5.484375 C 9 -6.441406 8.734375 -7.207031 8.203125 -7.78125 C 7.679688 -8.363281 6.988281 -8.65625 6.125 -8.65625 C 5.238281 -8.65625 4.535156 -8.367188 4.015625 -7.796875 C 3.492188 -7.222656 3.234375 -6.453125 3.234375 -5.484375 Z M 3.234375 -5.484375 "/></g></g></g><g fill="#ffffff" fill-opacity="1"><g transform="translate(107.808061, 18.886175)"><g><path d="M 3.578125 -10.90625 L 3.578125 -4.375 C 3.578125 -3.726562 3.734375 -3.226562 4.046875 -2.875 C 4.367188 -2.519531 4.84375 -2.34375 5.46875 -2.34375 C 6.09375 -2.34375 6.566406 -2.519531 6.890625 -2.875 C 7.222656 -3.226562 7.390625 -3.726562 7.390625 -4.375 L 7.390625 -10.90625 L 10.046875 -10.90625 L 10.046875 -4.390625 C 10.046875 -3.421875 9.835938 -2.597656 9.421875 -1.921875 C 9.015625 -1.253906 8.457031 -0.75 7.75 -0.40625 C 7.050781 -0.0625 6.273438 0.109375 5.421875 0.109375 C 4.554688 0.109375 3.785156 -0.0546875 3.109375 -0.390625 C 2.429688 -0.734375 1.894531 -1.242188 1.5 -1.921875 C 1.113281 -2.597656 0.921875 -3.421875 0.921875 -4.390625 L 0.921875 -10.90625 Z M 3.578125 -10.90625 "/></g></g></g><g fill="#ffffff" fill-opacity="1"><g transform="translate(118.745482, 18.886175)"><g><path d="M 3.625 -8.78125 L 3.625 -6.5625 L 7.171875 -6.5625 L 7.171875 -4.515625 L 3.625 -4.515625 L 3.625 -2.125 L 7.640625 -2.125 L 7.640625 0 L 0.96875 0 L 0.96875 -10.90625 L 7.640625 -10.90625 L 7.640625 -8.78125 Z M 3.625 -8.78125 "/></g></g></g><g clip-path="url(#367d4dc583)"><path fill="#00853f" d="M 32.023438 8.621094 L 37.828125 8.621094 L 37.828125 20.234375 L 32.023438 20.234375 Z M 32.023438 8.621094 " fill-opacity="1" fill-rule="nonzero"/></g><g clip-path="url(#ba26af5149)"><path fill="#fdef42" d="M 37.828125 8.621094 L 43.632812 8.621094 L 43.632812 20.234375 L 37.828125 20.234375 Z M 37.828125 8.621094 " fill-opacity="1" fill-rule="nonzero"/></g><g clip-path="url(#b4e9f253b4)"><path fill="#e31b23" d="M 43.632812 8.621094 L 49.4375 8.621094 L 49.4375 20.234375 L 43.632812 20.234375 Z M 43.632812 8.621094 " fill-opacity="1" fill-rule="nonzero"/></g><path fill="#00853f" d="M 40.730469 12.492188 L 41.164062 13.828125 L 42.570312 13.828125 L 41.433594 14.65625 L 41.867188 15.992188 L 40.730469 15.167969 L 39.59375 15.992188 L 40.027344 14.65625 L 38.890625 13.828125 L 40.296875 13.828125 Z M 40.730469 12.492188 " fill-opacity="1" fill-rule="nonzero"/><g fill="#ffffff" fill-opacity="1"><g transform="translate(4.010835, 18.886175)"><g><path d="M 11.203125 -10.90625 L 7.328125 0 L 4 0 L 0.140625 -10.90625 L 2.96875 -10.90625 L 5.671875 -2.671875 L 8.390625 -10.90625 Z M 11.203125 -10.90625 "/></g></g></g><g fill="#ffffff" fill-opacity="1"><g transform="translate(15.336111, 18.886175)"><g><path d="M 3.625 -10.90625 L 3.625 0 L 0.96875 0 L 0.96875 -10.90625 Z M 3.625 -10.90625 "/></g></g></g><g fill="#ffffff" fill-opacity="1"><g transform="translate(19.912758, 18.886175)"><g><path d="M 3.625 -8.78125 L 3.625 -6.5625 L 7.171875 -6.5625 L 7.171875 -4.515625 L 3.625 -4.515625 L 3.625 -2.125 L 7.640625 -2.125 L 7.640625 0 L 0.96875 0 L 0.96875 -10.90625 L 7.640625 -10.90625 L 7.640625 -8.78125 Z M 3.625 -8.78125 "/></g></g></g></svg>